<?xml version="1.0" encoding="UTF-8" standalone="no"?>
<!-- Created with Inkscape (http://www.inkscape.org/) -->

<svg
   xmlns:dc="http://purl.org/dc/elements/1.1/"
   xmlns:cc="http://creativecommons.org/ns#"
   xmlns:rdf="http://www.w3.org/1999/02/22-rdf-syntax-ns#"
   xmlns:svg="http://www.w3.org/2000/svg"
   xmlns="http://www.w3.org/2000/svg"
   xmlns:sodipodi="http://sodipodi.sourceforge.net/DTD/sodipodi-0.dtd"
   xmlns:inkscape="http://www.inkscape.org/namespaces/inkscape"
   width="210mm"
   height="297mm"
   viewBox="0 0 744.09448819 1052.3622047"
   id="svg4210"
   version="1.1"
   inkscape:version="0.91 r13725"
   sodipodi:docname="marker.svg"
   inkscape:export-filename="/home/michael/Repository/VirtualHelm/web/img/marker_red_32x12.png"
   inkscape:export-xdpi="2.8636363"
   inkscape:export-ydpi="2.8636363">
  <defs
     id="defs4212" />
  <sodipodi:namedview
     id="base"
     pagecolor="#ffffff"
     bordercolor="#666666"
     borderopacity="1.0"
     inkscape:pageopacity="0.0"
     inkscape:pageshadow="2"
     inkscape:zoom="0.35"
     inkscape:cx="-493.57143"
     inkscape:cy="520"
     inkscape:document-units="px"
     inkscape:current-layer="layer1"
     showgrid="false"
     inkscape:window-width="1920"
     inkscape:window-height="1030"
     inkscape:window-x="0"
     inkscape:window-y="0"
     inkscape:window-maximized="1" />
  <metadata
     id="metadata4215">
    <rdf:RDF>
      <cc:Work
         rdf:about="">
        <dc:format>image/svg+xml</dc:format>
        <dc:type
           rdf:resource="http://purl.org/dc/dcmitype/StillImage" />
        <dc:title />
      </cc:Work>
    </rdf:RDF>
  </metadata>
  <g
     inkscape:label="Layer 1"
     inkscape:groupmode="layer"
     id="layer1">
    <path
       style="fill:#000400;fill-opacity:0.92261903"
       id="path4758"
       sodipodi:type="arc"
       sodipodi:cx="378.57144"
       sodipodi:cy="220.93365"
       sodipodi:rx="187.14285"
       sodipodi:ry="177.14285"
       sodipodi:start="0.75991985"
       sodipodi:end="0.75715699"
       d="m 514.22965,342.96087 a 187.14285,177.14285 0 0 1 -264.48033,6.46634 187.14285,177.14285 0 0 1 -7.01405,-250.343269 187.14285,177.14285 0 0 1 264.47064,-6.812168 187.14285,177.14285 0 0 1 7.3794,250.333857 L 378.57144,220.93365 Z" />
    <rect
       style="fill:#000400;fill-opacity:0.92261903"
       id="rect4760"
       width="25.714294"
       height="662.85718"
       x="365.71429"
       y="386.64792"
       ry="1.3446e-05" />
    <path
       style="fill:#ff0000;fill-opacity:0.92261903"
       d="M 328.60497,389.98418 C 265.97738,373.57949 213.90355,322.32006 198.08462,261.50506 c -6.55835,-25.21324 -4.50983,-71.37932 4.27536,-96.3508 17.16773,-48.79842 64.3522,-94.05551 114.31065,-109.641319 60.42919,-18.852425 118.88081,-10.718041 170.35,23.706655 43.62977,29.181364 71.35568,75.553354 76.72723,128.327414 3.91957,38.50863 -12.8482,91.52393 -37.86257,119.71159 l -11.13189,12.54409 -10.11937,-8.43451 c -5.56563,-4.63901 -26.01729,-22.55986 -45.44811,-39.82412 -19.43083,-17.26427 -33.4568,-29.02772 -31.16884,-26.141 2.28797,2.88673 22.07471,21.46346 43.97055,41.28163 l 39.8106,36.03303 -11.75083,10.42794 c -16.56826,14.70306 -47.80795,30.4026 -73.64592,37.01083 C 399.79239,396.96195 391,397.29689 391,391.50506 c 0,-3.1746 -3.33333,-4.28571 -12.85714,-4.28571 -9.52381,0 -12.85715,1.11111 -12.85715,4.28571 0,5.7536 -10.58464,5.31474 -36.68074,-1.52088 z m 93.8236,-129.37314 c 0,-0.49172 -4.17857,-4.67029 -9.28571,-9.28572 l -9.28572,-8.39169 8.39169,9.28572 c 7.82223,8.65558 10.17974,10.599 10.17974,8.39169 z"
       id="path4691"
       inkscape:connector-curvature="0" />
    <path
       style="fill:#ff0000;fill-opacity:0.92261903"
       d="m 392.4938,391.16212 c -4.50577,-4.50577 -27.20809,-5.41163 -27.20809,-1.08563 0,5.11577 -22.05333,3.01789 -45.22543,-4.30217 -42.43047,-13.4038 -83.10147,-46.55654 -104.49995,-85.18259 -14.57119,-26.30221 -18.84604,-44.22293 -18.84604,-79.00496 0,-46.80841 8.84124,-73.03587 35.62842,-105.69132 61.64513,-75.149744 170.27905,-90.773846 252.25026,-36.279494 67.23043,44.694704 94.22649,124.504904 67.01634,198.124764 -7.78802,21.07133 -15.87545,35.16566 -31.34922,54.63368 l -5.23289,6.58363 -38.61218,-33.72648 c -21.2367,-18.54957 -41.10711,-35.58517 -44.15646,-37.85688 -10.89255,-8.11478 26.3509,29.02769 52.2203,52.07872 l 26.35111,23.48024 -6.34357,5.19777 c -35.11007,28.76852 -100.95525,54.06809 -111.9926,43.03072 z m 29.93477,-130.55108 c 0,-0.49172 -4.17857,-4.67029 -9.28571,-9.28572 l -9.28572,-8.39169 8.39169,9.28572 c 7.82223,8.65558 10.17974,10.599 10.17974,8.39169 z"
       id="path4693"
       inkscape:connector-curvature="0" />
    <path
       style="fill:#ff0000;fill-opacity:0.92261903"
       d="M 318.97118,385.57295 C 264.46755,368.02429 216.12294,319.09883 200.90212,266.08532 193.99126,242.01507 196.1314,183.64515 204.72717,161.76153 223.0392,115.14169 268.101,73.347962 318.14286,56.571248 c 20.02591,-6.71376 27.45789,-7.675454 60,-7.763955 34.366,-0.09346 38.98364,0.555834 61.765,8.684907 78.1942,27.902036 126.26711,95.51532 121.6914,171.15572 -2.27886,37.67148 -16.1946,72.66442 -41.23663,103.69471 l -5.28746,6.55183 -37.22957,-32.26612 c -20.47625,-17.74638 -39.71459,-34.1338 -42.75186,-36.41649 -11.5273,-8.66347 18.54933,21.30857 46.56786,46.40593 l 29.23303,26.18522 -7.80446,6.53372 c -15.33571,12.83868 -45.30599,29.10063 -66.87965,36.289 -22.52549,7.50554 -43.51329,9.50843 -46.63909,4.45077 -0.9712,-1.57143 -6.83279,-2.85714 -13.02576,-2.85714 -6.19298,0 -11.25996,1.28571 -11.25996,2.85714 0,5.08043 -23.70809,2.77509 -46.31453,-4.50354 z M 422.42857,260.57453 c 0,-0.51179 -3.53571,-4.04751 -7.85714,-7.85714 l -7.85714,-6.92661 6.92661,7.85714 c 6.47396,7.34368 8.78767,9.16739 8.78767,6.92661 z"
       id="path4695"
       inkscape:connector-curvature="0" />
    <path
       style="fill:#ff0000;fill-opacity:1"
       d="m 318.97118,385.57295 c -39.59663,-12.74903 -81.92651,-46.77143 -102.48313,-82.37028 -14.35569,-24.86039 -19.77376,-47.16379 -19.77376,-81.39828 0,-47.04488 8.7997,-73.20284 35.62842,-105.90894 38.97545,-47.51382 93.85696,-71.263327 156.96604,-67.925724 121.76379,6.439632 202.49911,120.994244 162.17656,230.110804 -9.75062,26.38606 -33.085,61.90779 -38.52614,58.64796 -1.86326,-1.11629 -18.17346,-14.89586 -36.24488,-30.62128 -18.07143,-15.72542 -35.42858,-30.48056 -38.57143,-32.7892 -8.01338,-5.88637 21.06967,22.61365 49.62614,48.63128 l 23.91186,21.78594 -20.67837,14.52186 c -11.37312,7.987 -31.13344,18.55966 -43.91186,23.49477 -25.11238,9.6986 -53.96663,14.07283 -57.29591,8.68592 -2.46199,-3.98358 -20.66563,-4.26852 -23.08043,-0.36129 -3.04542,4.9276 -24.8351,2.8722 -47.74311,-4.50354 z M 422.42857,260.51931 c 0,-0.54216 -2.89286,-3.43502 -6.42857,-6.42857 l -6.42857,-5.44282 5.44282,6.42857 c 5.11491,6.04127 7.41432,7.72926 7.41432,5.44282 z"
       id="path4697"
       inkscape:connector-curvature="0" />
  </g>
</svg>
